<svg width="28" height="39" viewBox="0 0 28 39" fill="none" xmlns="http://www.w3.org/2000/svg">
<path d="M29.0094 3.24993C29.0094 3.56219 28.8099 3.91383 28.5113 4.14844L8.92891 19.4998L28.5113 34.8511C28.8106 35.0857 29.0094 35.4368 29.0094 35.7496C29.0094 36.0624 28.8099 36.4135 28.5113 36.6481L26.0202 38.601C25.7209 38.8356 25.273 38.9915 24.874 38.9915C24.475 38.9915 24.0271 38.8351 23.7278 38.601L0.507464 20.3977C0.208193 20.1631 0.00937653 19.812 0.00937653 19.4992C0.00937653 19.1864 0.208891 18.8353 0.507464 18.6007L23.7278 0.397427C24.0271 0.162818 24.475 0.00695801 24.874 0.00695801C25.273 0.00695801 25.7209 0.163365 26.0202 0.397427L28.5113 2.35032C28.8106 2.58493 29.0094 2.89719 29.0094 3.24883V3.24993Z" fill="#666666"/>
</svg>
